<?xml version="1.0" encoding="utf-8"?>
<svg xmlns="http://www.w3.org/2000/svg" height="48" width="48" viewBox="0 0 48 48">
  <g>
    <path
      id="path1"
      transform="rotate(0,24,24) translate(1.6,7.40999946594238) scale(1.4,1.4)"
      fill="#FFFFFF"
      opacity="0.5"
      d="M21.100006,16.899995L30.799988,16.899995 30.799988,23.7 21.100006,23.7z M9.6999817,16.899995L19.399994,16.899995 19.399994,23.7 9.6999817,23.7z M11.399994,8.5000011L21.100006,8.5000011 21.100006,15.299998 11.399994,15.299998z M0,8.5000011L9.6999817,8.5000011 9.6999817,15.299998 0,15.299998z M22.299988,8.2999966L32,8.2999966 32,15.100001 22.299988,15.100001z M3.6999817,0.19999695L13.399994,0.19999695 13.399994,7.0000007 3.6999817,7.0000007z M14.799988,0L24.5,0 24.5,6.7999961 14.799988,6.7999961z"
    />
  </g>
</svg>
