<?xml version="1.0" encoding="utf-8"?>
<svg xmlns="http://www.w3.org/2000/svg" height="48" width="48" viewBox="0 0 48 48">
  <g>
    <path
      id="path1"
      transform="rotate(0,24,24) translate(0,10.5004200208634) scale(1.5,1.5)"
      fill="#FFFFFF"
      opacity="1"
      d="M15.999992,6.0000238C14.34597,6.0000238 12.999992,7.3459711 12.999992,9.0000238 12.999992,10.653955 14.34597,12.000024 15.999992,12.000024 17.653984,12.000024 18.999992,10.653955 18.999992,9.0000238 18.999992,7.3459711 17.653984,6.0000238 15.999992,6.0000238z M15.999992,4.0000238C18.756981,4.0000238 20.999992,6.2429438 20.999992,9.0000238 20.999992,11.756982 18.756981,14.000024 15.999992,14.000024 13.242973,14.000024 10.999992,11.756982 10.999992,9.0000238 10.999992,6.2429438 13.242973,4.0000238 15.999992,4.0000238z M16.000997,1.9999995C9.6349981,1.9999998 4.1219993,7.1579998 2.3559999,9 4.1219993,10.842 9.6349981,16 16.000997,16 22.365995,16 27.878994,10.842 29.644993,9 27.878994,7.1579998 22.365995,1.9999998 16.000997,1.9999995z M16.000997,0C24.650995,0 31.479994,8.0159998 31.766993,8.3569999 32.078993,8.7289996 32.078993,9.2709999 31.766993,9.6429996 31.479994,9.9839997 24.650995,18 16.000997,18 7.3499987,18 0.52099991,9.9839997 0.23400021,9.6429996 -0.078000069,9.2709999 -0.078000069,8.7289996 0.23400021,8.3569999 0.52099991,8.0159998 7.3499987,0 16.000997,0z"
    />
  </g>
</svg>
