<?xml version="1.0" encoding="utf-8"?>
<svg xmlns="http://www.w3.org/2000/svg" height="48" width="48" viewBox="0 0 48 48">
  <g>
    <path id="path1" transform="rotate(0,24,24) translate(0,2.8439998626709) scale(1.5,1.5)  " fill="#000000" d="M1.6819987,14.044979L9.8970004,17.370966 6.3769976,19.284967C8.2400037,22.789972 11.896001,25.193962 16.141995,25.193962 20.631998,25.193962 24.487993,22.521967 26.233004,18.687982L29.466995,18.687982C27.558001,24.216972 22.313997,28.208 16.141995,28.208 10.761998,28.208 6.0890032,25.17498 3.7130042,20.731012L0,22.747003z M16.141995,0C21.460993,1.3985937E-07,26.084002,2.9670097,28.485001,7.3259868L32,5.3049912 30.530991,14.044979 22.236994,10.916013 25.860003,8.8339815C23.983004,5.3789963 20.351999,3.0140068 16.141995,3.0140066 11.653997,3.0140068 7.7980023,5.6860031 6.0520006,9.518979L2.8189999,9.518979C4.7280031,3.9899892,9.9719973,1.3985937E-07,16.141995,0z" />
  </g>
</svg>
