<?xml version="1.0" encoding="utf-8"?>
<svg xmlns="http://www.w3.org/2000/svg" height="48" width="48" viewBox="0 0 48 48">
  <g>
    <path
      id="path1"
      transform="rotate(0,24,24) translate(2.2432991027832,1.6) scale(1.4,1.4)  "
      fill="#FFFDFD"
      opacity="0.5"
      d="M31.081001,20.511002L31.05201,23.483994C31.05201,23.694992 15.619999,31.923996 15.619999,31.923996 15.533024,31.974991 15.435001,32 15.335026,32 15.237003,32 15.136997,31.974991 15.046024,31.923996 15.046024,31.923996 -1.8120772E-08,23.992996 0,23.781998L0,20.741989 15.335026,28.577988z M31.081001,13.343002L31.05201,16.315994C31.05201,16.526001 15.619999,24.756989 15.619999,24.756989 15.533024,24.807999 15.435001,24.832001 15.335026,24.832001 15.237003,24.832001 15.136997,24.807999 15.046024,24.756989 15.046024,24.756989 -1.8120772E-08,16.824997 0,16.613998L0,13.57399 15.335026,21.409988z M15.798008,0C15.898014,0,15.996006,0.024993896,16.083012,0.07598877L30.784004,8.375C30.970009,8.4779968 31.081001,8.6699982 31.081001,8.8809967 31.081001,9.0919952 30.970009,9.2849884 30.784004,9.3880005L16.083012,17.686996C15.996006,17.737991 15.898014,17.763 15.798008,17.763 15.700016,17.763 15.60001,17.737991 15.509007,17.686996L0.80902101,9.3880005C0.62600722,9.2849884 0.51199349,9.0919952 0.51199343,8.8809967 0.51199349,8.6699982 0.62600722,8.4779968 0.80902101,8.375L15.509007,0.07598877C15.60001,0.024993896,15.700016,0,15.798008,0z"
    />
  </g>
</svg>
